<svg xmlns="http://www.w3.org/2000/svg" width="576" height="452" viewBox="0 0 576 452">
<rect width="576" height="452" fill="#18252d"/>
<g font-family="sans-serif" fill="#edf4ee">
<text x="28" y="30" font-size="19">Generated route · seed 17</text>
<text x="28" y="53" font-size="12">Topology diagram · all connectors shown for review</text>
<text x="28" y="73" font-size="12">Start/player: Camp · movement awards nothing</text>
<rect x="28" y="86" width="26" height="26" fill="none" stroke="#30444e"/>
<rect x="54" y="86" width="26" height="26" fill="none" stroke="#30444e"/>
<rect x="80" y="86" width="26" height="26" fill="none" stroke="#30444e"/>
<rect x="106" y="86" width="26" height="26" fill="none" stroke="#30444e"/>
<rect x="132" y="86" width="26" height="26" fill="none" stroke="#30444e"/>
<rect x="158" y="86" width="26" height="26" fill="none" stroke="#30444e"/>
<rect x="184" y="86" width="26" height="26" fill="none" stroke="#30444e"/>
<rect x="210" y="86" width="26" height="26" fill="none" stroke="#30444e"/>
<rect x="236" y="86" width="26" height="26" fill="none" stroke="#30444e"/>
<rect x="262" y="86" width="26" height="26" fill="none" stroke="#30444e"/>
<rect x="288" y="86" width="26" height="26" fill="none" stroke="#30444e"/>
<rect x="314" y="86" width="26" height="26" fill="none" stroke="#30444e"/>
<rect x="340" y="86" width="26" height="26" fill="none" stroke="#30444e"/>
<rect x="366" y="86" width="26" height="26" fill="none" stroke="#30444e"/>
<rect x="392" y="86" width="26" height="26" fill="none" stroke="#30444e"/>
<rect x="418" y="86" width="26" height="26" fill="none" stroke="#30444e"/>
<rect x="444" y="86" width="26" height="26" fill="none" stroke="#30444e"/>
<rect x="470" y="86" width="26" height="26" fill="none" stroke="#30444e"/>
<rect x="496" y="86" width="26" height="26" fill="none" stroke="#30444e"/>
<rect x="522" y="86" width="26" height="26" fill="none" stroke="#30444e"/>
<rect x="28" y="112" width="26" height="26" fill="none" stroke="#30444e"/>
<rect x="54" y="112" width="26" height="26" fill="none" stroke="#30444e"/>
<rect x="80" y="112" width="26" height="26" fill="none" stroke="#30444e"/>
<rect x="106" y="112" width="26" height="26" fill="none" stroke="#30444e"/>
<rect x="132" y="112" width="26" height="26" fill="none" stroke="#30444e"/>
<rect x="158" y="112" width="26" height="26" fill="none" stroke="#30444e"/>
<rect x="184" y="112" width="26" height="26" fill="none" stroke="#30444e"/>
<rect x="210" y="112" width="26" height="26" fill="none" stroke="#30444e"/>
<rect x="236" y="112" width="26" height="26" fill="none" stroke="#30444e"/>
<rect x="262" y="112" width="26" height="26" fill="none" stroke="#30444e"/>
<rect x="288" y="112" width="26" height="26" fill="none" stroke="#30444e"/>
<rect x="314" y="112" width="26" height="26" fill="none" stroke="#30444e"/>
<rect x="340" y="112" width="26" height="26" fill="none" stroke="#30444e"/>
<rect x="366" y="112" width="26" height="26" fill="none" stroke="#30444e"/>
<rect x="392" y="112" width="26" height="26" fill="none" stroke="#30444e"/>
<rect x="418" y="112" width="26" height="26" fill="none" stroke="#30444e"/>
<rect x="444" y="112" width="26" height="26" fill="none" stroke="#30444e"/>
<rect x="470" y="112" width="26" height="26" fill="none" stroke="#30444e"/>
<rect x="496" y="112" width="26" height="26" fill="none" stroke="#30444e"/>
<rect x="522" y="112" width="26" height="26" fill="none" stroke="#30444e"/>
<rect x="28" y="138" width="26" height="26" fill="none" stroke="#30444e"/>
<rect x="54" y="138" width="26" height="26" fill="none" stroke="#30444e"/>
<rect x="80" y="138" width="26" height="26" fill="none" stroke="#30444e"/>
<rect x="106" y="138" width="26" height="26" fill="none" stroke="#30444e"/>
<rect x="132" y="138" width="26" height="26" fill="none" stroke="#30444e"/>
<rect x="158" y="138" width="26" height="26" fill="none" stroke="#30444e"/>
<rect x="184" y="138" width="26" height="26" fill="none" stroke="#30444e"/>
<rect x="210" y="138" width="26" height="26" fill="none" stroke="#30444e"/>
<rect x="236" y="138" width="26" height="26" fill="none" stroke="#30444e"/>
<rect x="262" y="138" width="26" height="26" fill="none" stroke="#30444e"/>
<rect x="288" y="138" width="26" height="26" fill="none" stroke="#30444e"/>
<rect x="314" y="138" width="26" height="26" fill="none" stroke="#30444e"/>
<rect x="340" y="138" width="26" height="26" fill="none" stroke="#30444e"/>
<rect x="366" y="138" width="26" height="26" fill="none" stroke="#30444e"/>
<rect x="392" y="138" width="26" height="26" fill="none" stroke="#30444e"/>
<rect x="418" y="138" width="26" height="26" fill="none" stroke="#30444e"/>
<rect x="444" y="138" width="26" height="26" fill="none" stroke="#30444e"/>
<rect x="470" y="138" width="26" height="26" fill="none" stroke="#30444e"/>
<rect x="496" y="138" width="26" height="26" fill="none" stroke="#30444e"/>
<rect x="522" y="138" width="26" height="26" fill="none" stroke="#30444e"/>
<rect x="28" y="164" width="26" height="26" fill="none" stroke="#30444e"/>
<rect x="54" y="164" width="26" height="26" fill="none" stroke="#30444e"/>
<rect x="80" y="164" width="26" height="26" fill="none" stroke="#30444e"/>
<rect x="106" y="164" width="26" height="26" fill="none" stroke="#30444e"/>
<rect x="132" y="164" width="26" height="26" fill="none" stroke="#30444e"/>
<rect x="158" y="164" width="26" height="26" fill="none" stroke="#30444e"/>
<rect x="184" y="164" width="26" height="26" fill="none" stroke="#30444e"/>
<rect x="210" y="164" width="26" height="26" fill="none" stroke="#30444e"/>
<rect x="236" y="164" width="26" height="26" fill="none" stroke="#30444e"/>
<rect x="262" y="164" width="26" height="26" fill="none" stroke="#30444e"/>
<rect x="288" y="164" width="26" height="26" fill="none" stroke="#30444e"/>
<rect x="314" y="164" width="26" height="26" fill="none" stroke="#30444e"/>
<rect x="340" y="164" width="26" height="26" fill="none" stroke="#30444e"/>
<rect x="366" y="164" width="26" height="26" fill="none" stroke="#30444e"/>
<rect x="392" y="164" width="26" height="26" fill="none" stroke="#30444e"/>
<rect x="418" y="164" width="26" height="26" fill="none" stroke="#30444e"/>
<rect x="444" y="164" width="26" height="26" fill="none" stroke="#30444e"/>
<rect x="470" y="164" width="26" height="26" fill="none" stroke="#30444e"/>
<rect x="496" y="164" width="26" height="26" fill="none" stroke="#30444e"/>
<rect x="522" y="164" width="26" height="26" fill="none" stroke="#30444e"/>
<rect x="28" y="190" width="26" height="26" fill="none" stroke="#30444e"/>
<rect x="54" y="190" width="26" height="26" fill="none" stroke="#30444e"/>
<rect x="80" y="190" width="26" height="26" fill="none" stroke="#30444e"/>
<rect x="106" y="190" width="26" height="26" fill="none" stroke="#30444e"/>
<rect x="132" y="190" width="26" height="26" fill="none" stroke="#30444e"/>
<rect x="158" y="190" width="26" height="26" fill="none" stroke="#30444e"/>
<rect x="184" y="190" width="26" height="26" fill="none" stroke="#30444e"/>
<rect x="210" y="190" width="26" height="26" fill="none" stroke="#30444e"/>
<rect x="236" y="190" width="26" height="26" fill="none" stroke="#30444e"/>
<rect x="262" y="190" width="26" height="26" fill="none" stroke="#30444e"/>
<rect x="288" y="190" width="26" height="26" fill="none" stroke="#30444e"/>
<rect x="314" y="190" width="26" height="26" fill="none" stroke="#30444e"/>
<rect x="340" y="190" width="26" height="26" fill="none" stroke="#30444e"/>
<rect x="366" y="190" width="26" height="26" fill="none" stroke="#30444e"/>
<rect x="392" y="190" width="26" height="26" fill="none" stroke="#30444e"/>
<rect x="418" y="190" width="26" height="26" fill="none" stroke="#30444e"/>
<rect x="444" y="190" width="26" height="26" fill="none" stroke="#30444e"/>
<rect x="470" y="190" width="26" height="26" fill="none" stroke="#30444e"/>
<rect x="496" y="190" width="26" height="26" fill="none" stroke="#30444e"/>
<rect x="522" y="190" width="26" height="26" fill="none" stroke="#30444e"/>
<rect x="28" y="216" width="26" height="26" fill="none" stroke="#30444e"/>
<rect x="54" y="216" width="26" height="26" fill="none" stroke="#30444e"/>
<rect x="80" y="216" width="26" height="26" fill="none" stroke="#30444e"/>
<rect x="106" y="216" width="26" height="26" fill="none" stroke="#30444e"/>
<rect x="132" y="216" width="26" height="26" fill="none" stroke="#30444e"/>
<rect x="158" y="216" width="26" height="26" fill="none" stroke="#30444e"/>
<rect x="184" y="216" width="26" height="26" fill="none" stroke="#30444e"/>
<rect x="210" y="216" width="26" height="26" fill="none" stroke="#30444e"/>
<rect x="236" y="216" width="26" height="26" fill="none" stroke="#30444e"/>
<rect x="262" y="216" width="26" height="26" fill="none" stroke="#30444e"/>
<rect x="288" y="216" width="26" height="26" fill="none" stroke="#30444e"/>
<rect x="314" y="216" width="26" height="26" fill="none" stroke="#30444e"/>
<rect x="340" y="216" width="26" height="26" fill="none" stroke="#30444e"/>
<rect x="366" y="216" width="26" height="26" fill="none" stroke="#30444e"/>
<rect x="392" y="216" width="26" height="26" fill="none" stroke="#30444e"/>
<rect x="418" y="216" width="26" height="26" fill="none" stroke="#30444e"/>
<rect x="444" y="216" width="26" height="26" fill="none" stroke="#30444e"/>
<rect x="470" y="216" width="26" height="26" fill="none" stroke="#30444e"/>
<rect x="496" y="216" width="26" height="26" fill="none" stroke="#30444e"/>
<rect x="522" y="216" width="26" height="26" fill="none" stroke="#30444e"/>
<rect x="28" y="242" width="26" height="26" fill="none" stroke="#30444e"/>
<rect x="54" y="242" width="26" height="26" fill="none" stroke="#30444e"/>
<rect x="80" y="242" width="26" height="26" fill="none" stroke="#30444e"/>
<rect x="106" y="242" width="26" height="26" fill="none" stroke="#30444e"/>
<rect x="132" y="242" width="26" height="26" fill="none" stroke="#30444e"/>
<rect x="158" y="242" width="26" height="26" fill="none" stroke="#30444e"/>
<rect x="184" y="242" width="26" height="26" fill="none" stroke="#30444e"/>
<rect x="210" y="242" width="26" height="26" fill="none" stroke="#30444e"/>
<rect x="236" y="242" width="26" height="26" fill="none" stroke="#30444e"/>
<rect x="262" y="242" width="26" height="26" fill="none" stroke="#30444e"/>
<rect x="288" y="242" width="26" height="26" fill="none" stroke="#30444e"/>
<rect x="314" y="242" width="26" height="26" fill="none" stroke="#30444e"/>
<rect x="340" y="242" width="26" height="26" fill="none" stroke="#30444e"/>
<rect x="366" y="242" width="26" height="26" fill="none" stroke="#30444e"/>
<rect x="392" y="242" width="26" height="26" fill="none" stroke="#30444e"/>
<rect x="418" y="242" width="26" height="26" fill="none" stroke="#30444e"/>
<rect x="444" y="242" width="26" height="26" fill="none" stroke="#30444e"/>
<rect x="470" y="242" width="26" height="26" fill="none" stroke="#30444e"/>
<rect x="496" y="242" width="26" height="26" fill="none" stroke="#30444e"/>
<rect x="522" y="242" width="26" height="26" fill="none" stroke="#30444e"/>
<rect x="28" y="268" width="26" height="26" fill="none" stroke="#30444e"/>
<rect x="54" y="268" width="26" height="26" fill="none" stroke="#30444e"/>
<rect x="80" y="268" width="26" height="26" fill="none" stroke="#30444e"/>
<rect x="106" y="268" width="26" height="26" fill="none" stroke="#30444e"/>
<rect x="132" y="268" width="26" height="26" fill="none" stroke="#30444e"/>
<rect x="158" y="268" width="26" height="26" fill="none" stroke="#30444e"/>
<rect x="184" y="268" width="26" height="26" fill="none" stroke="#30444e"/>
<rect x="210" y="268" width="26" height="26" fill="none" stroke="#30444e"/>
<rect x="236" y="268" width="26" height="26" fill="none" stroke="#30444e"/>
<rect x="262" y="268" width="26" height="26" fill="none" stroke="#30444e"/>
<rect x="288" y="268" width="26" height="26" fill="none" stroke="#30444e"/>
<rect x="314" y="268" width="26" height="26" fill="none" stroke="#30444e"/>
<rect x="340" y="268" width="26" height="26" fill="none" stroke="#30444e"/>
<rect x="366" y="268" width="26" height="26" fill="none" stroke="#30444e"/>
<rect x="392" y="268" width="26" height="26" fill="none" stroke="#30444e"/>
<rect x="418" y="268" width="26" height="26" fill="none" stroke="#30444e"/>
<rect x="444" y="268" width="26" height="26" fill="none" stroke="#30444e"/>
<rect x="470" y="268" width="26" height="26" fill="none" stroke="#30444e"/>
<rect x="496" y="268" width="26" height="26" fill="none" stroke="#30444e"/>
<rect x="522" y="268" width="26" height="26" fill="none" stroke="#30444e"/>
<rect x="28" y="294" width="26" height="26" fill="none" stroke="#30444e"/>
<rect x="54" y="294" width="26" height="26" fill="none" stroke="#30444e"/>
<rect x="80" y="294" width="26" height="26" fill="none" stroke="#30444e"/>
<rect x="106" y="294" width="26" height="26" fill="none" stroke="#30444e"/>
<rect x="132" y="294" width="26" height="26" fill="none" stroke="#30444e"/>
<rect x="158" y="294" width="26" height="26" fill="none" stroke="#30444e"/>
<rect x="184" y="294" width="26" height="26" fill="none" stroke="#30444e"/>
<rect x="210" y="294" width="26" height="26" fill="none" stroke="#30444e"/>
<rect x="236" y="294" width="26" height="26" fill="none" stroke="#30444e"/>
<rect x="262" y="294" width="26" height="26" fill="none" stroke="#30444e"/>
<rect x="288" y="294" width="26" height="26" fill="none" stroke="#30444e"/>
<rect x="314" y="294" width="26" height="26" fill="none" stroke="#30444e"/>
<rect x="340" y="294" width="26" height="26" fill="none" stroke="#30444e"/>
<rect x="366" y="294" width="26" height="26" fill="none" stroke="#30444e"/>
<rect x="392" y="294" width="26" height="26" fill="none" stroke="#30444e"/>
<rect x="418" y="294" width="26" height="26" fill="none" stroke="#30444e"/>
<rect x="444" y="294" width="26" height="26" fill="none" stroke="#30444e"/>
<rect x="470" y="294" width="26" height="26" fill="none" stroke="#30444e"/>
<rect x="496" y="294" width="26" height="26" fill="none" stroke="#30444e"/>
<rect x="522" y="294" width="26" height="26" fill="none" stroke="#30444e"/>
<rect x="28" y="320" width="26" height="26" fill="none" stroke="#30444e"/>
<rect x="54" y="320" width="26" height="26" fill="none" stroke="#30444e"/>
<rect x="80" y="320" width="26" height="26" fill="none" stroke="#30444e"/>
<rect x="106" y="320" width="26" height="26" fill="none" stroke="#30444e"/>
<rect x="132" y="320" width="26" height="26" fill="none" stroke="#30444e"/>
<rect x="158" y="320" width="26" height="26" fill="none" stroke="#30444e"/>
<rect x="184" y="320" width="26" height="26" fill="none" stroke="#30444e"/>
<rect x="210" y="320" width="26" height="26" fill="none" stroke="#30444e"/>
<rect x="236" y="320" width="26" height="26" fill="none" stroke="#30444e"/>
<rect x="262" y="320" width="26" height="26" fill="none" stroke="#30444e"/>
<rect x="288" y="320" width="26" height="26" fill="none" stroke="#30444e"/>
<rect x="314" y="320" width="26" height="26" fill="none" stroke="#30444e"/>
<rect x="340" y="320" width="26" height="26" fill="none" stroke="#30444e"/>
<rect x="366" y="320" width="26" height="26" fill="none" stroke="#30444e"/>
<rect x="392" y="320" width="26" height="26" fill="none" stroke="#30444e"/>
<rect x="418" y="320" width="26" height="26" fill="none" stroke="#30444e"/>
<rect x="444" y="320" width="26" height="26" fill="none" stroke="#30444e"/>
<rect x="470" y="320" width="26" height="26" fill="none" stroke="#30444e"/>
<rect x="496" y="320" width="26" height="26" fill="none" stroke="#30444e"/>
<rect x="522" y="320" width="26" height="26" fill="none" stroke="#30444e"/>
<rect x="28" y="346" width="26" height="26" fill="none" stroke="#30444e"/>
<rect x="54" y="346" width="26" height="26" fill="none" stroke="#30444e"/>
<rect x="80" y="346" width="26" height="26" fill="none" stroke="#30444e"/>
<rect x="106" y="346" width="26" height="26" fill="none" stroke="#30444e"/>
<rect x="132" y="346" width="26" height="26" fill="none" stroke="#30444e"/>
<rect x="158" y="346" width="26" height="26" fill="none" stroke="#30444e"/>
<rect x="184" y="346" width="26" height="26" fill="none" stroke="#30444e"/>
<rect x="210" y="346" width="26" height="26" fill="none" stroke="#30444e"/>
<rect x="236" y="346" width="26" height="26" fill="none" stroke="#30444e"/>
<rect x="262" y="346" width="26" height="26" fill="none" stroke="#30444e"/>
<rect x="288" y="346" width="26" height="26" fill="none" stroke="#30444e"/>
<rect x="314" y="346" width="26" height="26" fill="none" stroke="#30444e"/>
<rect x="340" y="346" width="26" height="26" fill="none" stroke="#30444e"/>
<rect x="366" y="346" width="26" height="26" fill="none" stroke="#30444e"/>
<rect x="392" y="346" width="26" height="26" fill="none" stroke="#30444e"/>
<rect x="418" y="346" width="26" height="26" fill="none" stroke="#30444e"/>
<rect x="444" y="346" width="26" height="26" fill="none" stroke="#30444e"/>
<rect x="470" y="346" width="26" height="26" fill="none" stroke="#30444e"/>
<rect x="496" y="346" width="26" height="26" fill="none" stroke="#30444e"/>
<rect x="522" y="346" width="26" height="26" fill="none" stroke="#30444e"/>
<rect x="86" y="196" width="14" height="14" fill="#3c7385"/>
<rect x="86" y="222" width="14" height="14" fill="#3c7385"/>
<rect x="86" y="248" width="14" height="14" fill="#3c7385"/>
<rect x="86" y="274" width="14" height="14" fill="#3c7385"/>
<rect x="112" y="196" width="14" height="14" fill="#3c7385"/>
<rect x="112" y="274" width="14" height="14" fill="#3c7385"/>
<rect x="138" y="196" width="14" height="14" fill="#3c7385"/>
<rect x="138" y="274" width="14" height="14" fill="#3c7385"/>
<rect x="164" y="196" width="14" height="14" fill="#3c7385"/>
<rect x="164" y="274" width="14" height="14" fill="#3c7385"/>
<rect x="190" y="196" width="14" height="14" fill="#3c7385"/>
<rect x="190" y="222" width="14" height="14" fill="#3c7385"/>
<rect x="190" y="248" width="14" height="14" fill="#3c7385"/>
<rect x="190" y="274" width="14" height="14" fill="#3c7385"/>
<rect x="216" y="196" width="14" height="14" fill="#3c7385"/>
<rect x="216" y="274" width="14" height="14" fill="#3c7385"/>
<rect x="242" y="196" width="14" height="14" fill="#3c7385"/>
<rect x="242" y="274" width="14" height="14" fill="#3c7385"/>
<rect x="268" y="196" width="14" height="14" fill="#3c7385"/>
<rect x="268" y="274" width="14" height="14" fill="#3c7385"/>
<rect x="294" y="196" width="14" height="14" fill="#3c7385"/>
<rect x="294" y="274" width="14" height="14" fill="#3c7385"/>
<rect x="320" y="196" width="14" height="14" fill="#3c7385"/>
<rect x="320" y="274" width="14" height="14" fill="#3c7385"/>
<rect x="346" y="274" width="14" height="14" fill="#3c7385"/>
<rect x="372" y="274" width="14" height="14" fill="#3c7385"/>
<rect x="398" y="274" width="14" height="14" fill="#3c7385"/>
<rect x="424" y="274" width="14" height="14" fill="#3c7385"/>
<rect x="424" y="300" width="14" height="14" fill="#3c7385"/>
<rect x="424" y="326" width="14" height="14" fill="#3c7385"/>
<rect x="216" y="118" width="14" height="14" fill="#7ea965"/>
<rect x="242" y="118" width="14" height="14" fill="#7ea965"/>
<rect x="268" y="118" width="14" height="14" fill="#7ea965"/>
<rect x="294" y="118" width="14" height="14" fill="#7ea965"/>
<rect x="320" y="118" width="14" height="14" fill="#7ea965"/>
<rect x="320" y="144" width="14" height="14" fill="#7ea965"/>
<rect x="320" y="170" width="14" height="14" fill="#7ea965"/>
<rect x="86" y="144" width="14" height="14" fill="#d59753"/>
<rect x="86" y="170" width="14" height="14" fill="#d59753"/>
<rect x="112" y="144" width="14" height="14" fill="#d59753"/>
<rect x="138" y="144" width="14" height="14" fill="#d59753"/>
<rect x="164" y="144" width="14" height="14" fill="#d59753"/>
<rect x="190" y="144" width="14" height="14" fill="#d59753"/>
<rect x="216" y="118" width="14" height="14" fill="#d59753"/>
<rect x="216" y="144" width="14" height="14" fill="#d59753"/>
<rect x="421" y="323" width="20" height="20" fill="#18252d" stroke="#edf4ee" stroke-width="2"/>
<text x="431" y="337" font-size="12" text-anchor="middle">0</text>
<rect x="317" y="193" width="20" height="20" fill="#18252d" stroke="#edf4ee" stroke-width="2"/>
<text x="327" y="207" font-size="12" text-anchor="middle">1</text>
<rect x="83" y="271" width="20" height="20" fill="#18252d" stroke="#f5ba69" stroke-width="2"/>
<text x="93" y="285" font-size="12" text-anchor="middle">2</text>
<rect x="187" y="271" width="20" height="20" fill="#18252d" stroke="#edf4ee" stroke-width="2"/>
<text x="197" y="285" font-size="12" text-anchor="middle">3</text>
<rect x="213" y="115" width="20" height="20" fill="#18252d" stroke="#edf4ee" stroke-width="2"/>
<text x="223" y="129" font-size="12" text-anchor="middle">4</text>
<text x="28" y="395" font-size="12">0 Camp   1 Moss bend   2 Relay   3 Stone shelf   4 Sealed cache</text>
<text x="28" y="417" font-size="12">Blue: visible   Green: ordinary trace   Orange: event trail</text>
<text x="28" y="438" font-size="12">Review reveals hidden routes; player would discover them through actions.</text>
</g></svg>